<svg width="69" height="25" viewBox="0 0 69 25" fill="none" xmlns="http://www.w3.org/2000/svg">
<g clip-path="url(#clip0_122_577)">
<path fill-rule="evenodd" clip-rule="evenodd" d="M53.6158 24.2453H67.6597C68.1896 24.2453 68.6174 23.8188 68.6174 23.2906V19.7477C68.6174 19.2243 68.1896 18.7978 67.6597 18.793H58.0978V15.1145H67.6597C68.1896 15.1145 68.6174 14.688 68.6174 14.1597V10.6218C68.6174 10.0983 68.1896 9.67184 67.6597 9.66699H58.0978V5.98849H67.6597C68.1896 5.98849 68.6174 5.56199 68.6174 5.03372V1.51031C68.6174 0.986882 68.1896 0.560389 67.6597 0.555542H53.5915C53.0665 0.555542 52.6339 0.982035 52.6339 1.51031V23.2954C52.6339 23.8237 53.0617 24.2502 53.5915 24.2502H53.611L53.6158 24.2453ZM48.2685 0.555542H44.7199C44.19 0.555542 43.7622 0.982035 43.7622 1.51031V14.4505L33.7628 0.986882C33.7385 0.952956 33.7142 0.919031 33.685 0.889952H33.6802C33.6607 0.860873 33.6413 0.841486 33.6219 0.8221L33.6024 0.807561C33.6024 0.807561 33.5684 0.778482 33.5489 0.763942L33.5246 0.744556C33.5246 0.744556 33.4906 0.720324 33.476 0.710631L33.4468 0.691244L33.3934 0.662165L33.3642 0.647626L33.3107 0.623393L33.2816 0.6137C33.2816 0.6137 33.2427 0.599161 33.2232 0.594314L33.1892 0.584621C33.1552 0.574928 33.126 0.570082 33.092 0.565235C33.0725 0.565235 33.058 0.565235 33.0385 0.560389C33.0191 0.560389 33.0045 0.560389 32.985 0.560389C32.9753 0.560389 32.9656 0.560389 32.951 0.560389H29.4218C28.8919 0.560389 28.4642 0.986882 28.4642 1.51515V23.3002C28.4642 23.8285 28.8919 24.255 29.4218 24.255H32.9705C33.5003 24.255 33.9281 23.8285 33.9281 23.3002V10.3649L43.9372 23.8431C44.0053 23.9351 44.0879 24.0175 44.1852 24.0805L44.1949 24.0902C44.1949 24.0902 44.2338 24.1145 44.2532 24.129L44.2824 24.1435C44.3116 24.1581 44.3456 24.1726 44.3748 24.1872L44.4039 24.1968C44.4039 24.1968 44.4477 24.2114 44.472 24.2162H44.4866C44.5692 24.2405 44.6518 24.255 44.7345 24.255H48.2637C48.7936 24.255 49.2213 23.8285 49.2213 23.3002V1.51031C49.2213 0.982035 48.7936 0.555542 48.2637 0.555542M24.0891 0.555542H20.5356C20.0057 0.555542 19.5779 0.982035 19.5779 1.51031V23.2954C19.5779 23.8237 20.0057 24.2502 20.5356 24.2502H24.0891C24.619 24.2502 25.0468 23.8237 25.0468 23.2954V1.51031C25.0516 0.982035 24.6238 0.555542 24.094 0.555542M15.6258 24.2453C16.1557 24.2453 16.5835 23.8188 16.5835 23.2906V19.7477C16.5835 19.2243 16.1557 18.7978 15.6258 18.793H6.06876V1.51031C6.06876 0.982035 5.64098 0.560389 5.11111 0.555542H1.56246C1.0326 0.555542 0.604813 0.982035 0.604813 1.51031V23.2954C0.604813 23.8237 1.0326 24.2502 1.56246 24.2502H15.6307" fill="white"/>
</g>
<defs>
<clipPath id="clip0_122_577">
<rect width="68.0126" height="23.6898" fill="white" transform="translate(0.604813 0.555542)"/>
</clipPath>
</defs>
</svg>
