<svg width="154" height="27" viewBox="0 0 154 27" fill="none" xmlns="http://www.w3.org/2000/svg">
<path d="M38.0523 7.2097C41.409 7.2097 44.4352 8.91666 44.8675 12.2804V12.3808H40.3156C40.2647 11.6026 39.4001 10.8997 37.9506 10.8997C36.9334 10.8997 36.1705 11.2512 36.1705 11.9791C36.1705 14.4141 45.0201 11.8536 45.0455 18.3802C45.0455 21.2168 42.3245 23.4007 38.7644 23.4007C34.721 23.4007 31.8729 21.3925 31.4915 17.9284V17.828H35.8145C35.9162 18.8572 37.0351 19.56 38.5355 19.56C39.8833 19.56 40.6462 19.1082 40.6462 18.3802C40.6462 15.8198 31.7966 18.1041 31.7966 12.3055C31.7966 9.3936 34.187 7.2097 38.0523 7.2097ZM97.9647 1.61189V23.0744H93.4382V20.8654C92.3448 22.497 90.641 23.4007 88.4286 23.4007C84.3853 23.4007 81.1303 19.7357 81.1303 15.2926C81.1303 10.8495 84.3598 7.23481 88.4286 7.23481C90.5901 7.23481 92.2939 8.13849 93.3874 9.69483L93.4382 9.77014V1.61189H97.9647ZM54.8359 7.2097C59.1081 7.2097 62.592 10.5232 62.592 14.7906C62.592 15.2424 62.5666 15.6943 62.5157 16.1461L62.4903 16.372H50.818C51.1232 18.3802 52.6998 19.6855 54.8105 19.6855C56.5397 19.6855 57.6332 18.9576 57.9129 17.9033L57.9384 17.8531H62.3631C61.8545 21.1666 58.9301 23.3254 55.0648 23.3756H54.9377H54.7342C50.2077 23.3254 46.6221 19.6604 46.673 15.2173C46.673 10.6738 50.2586 7.2097 54.8359 7.2097ZM104.907 1.61189V9.69483C106.001 8.08828 107.679 7.2097 109.866 7.2097C113.96 7.2097 117.19 10.8495 117.19 15.2926C117.19 19.7357 113.96 23.3756 109.891 23.3756C107.781 23.3756 106.077 22.497 104.983 20.9407L104.932 20.8654V23.0493H100.406V1.61189H104.907ZM153.071 1.61189V23.0493H148.57V20.8402C147.476 22.4719 145.773 23.3756 143.56 23.3756C139.466 23.3756 136.236 19.7106 136.236 15.2675C136.236 10.8244 139.466 7.2097 143.535 7.2097C145.696 7.2097 147.4 8.11339 148.494 9.66973L148.544 9.74504V1.61189H153.071ZM72.9927 7.2097C77.0361 7.2097 79.4773 9.89565 79.4519 14.2634V23.0493H74.9254V14.8157C74.9254 12.7824 73.7048 11.452 71.823 11.452C69.9666 11.452 68.746 12.7322 68.7206 14.7153V14.8157V23.0493H64.1941V7.51093H68.7206V9.51912C69.7123 8.06318 71.1872 7.2097 72.9927 7.2097ZM134.304 7.1846H134.406C134.863 7.2097 135.296 7.25991 135.728 7.36032L135.906 7.38542V11.452C135.372 11.3014 134.838 11.2261 134.278 11.2261C132.117 11.2261 130.388 12.4812 130.337 15.2926V15.3931V23.0493H125.81V7.51093H130.337V9.26809C131.227 7.98788 132.651 7.2097 134.202 7.1846H134.304ZM123.344 7.51093V23.0241H118.817V7.51093H123.344ZM85.6822 15.2424C85.6567 17.3259 87.3097 19.058 89.4203 19.1333H89.4966H89.6238C91.7344 19.0831 93.4382 17.3761 93.4382 15.2926C93.4382 13.2092 91.7344 11.5022 89.6238 11.4771C87.4877 11.4269 85.7076 13.1087 85.6822 15.2424ZM108.9 11.3767H108.823C106.662 11.4018 104.932 13.1589 104.958 15.2926C104.958 17.4514 106.687 19.1082 108.925 19.1082C111.086 19.058 112.816 17.3008 112.79 15.1922C112.765 13.1087 111.061 11.4269 108.976 11.3767H108.9ZM140.763 15.2424C140.738 17.3259 142.39 19.058 144.501 19.1333H144.577H144.705C146.815 19.0831 148.519 17.3761 148.519 15.2926C148.519 13.2092 146.815 11.5022 144.705 11.4771C142.594 11.4269 140.814 13.1087 140.763 15.2424ZM54.6325 10.8495C52.9287 10.8495 51.6064 11.6779 51.0469 13.4351L51.0215 13.5355H57.8621C57.7349 11.9289 56.3109 10.8495 54.6325 10.8495ZM121.055 0.858826C122.555 0.858826 123.801 2.06373 123.801 3.54477C123.801 5.02581 122.606 6.25582 121.08 6.25582C119.58 6.25582 118.334 5.07601 118.334 3.56987C118.334 2.06374 119.529 0.858826 121.055 0.858826Z" fill="white"/>
<path d="M13.5634 0.858826C20.76 0.858826 26.6089 6.68256 26.6089 13.7614C26.6089 20.8402 20.7346 26.6389 13.538 26.6389C6.34137 26.6389 0.492538 20.8402 0.492538 13.7363H6.90083C3.34067 13.661 0.492538 10.7993 0.492538 7.28501V0.858826H13.5634Z" fill="white"/>
</svg>
